<svg xmlns="http://www.w3.org/2000/svg" viewBox="0 0 32 32"><g fill="none" fill-rule="evenodd"><circle cx="16" cy="16" r="16" fill="#2775CA"/><path fill="#FFF" d="M20.5 18.5c0-2.25-1.35-3.02-4.05-3.35l-.02-2.72c.72.07 1.36.28 1.85.58l.72-1.4c-.63-.36-1.36-.58-2.22-.66V9.5h-1.56v1.5c-2.48.34-3.75 1.72-3.75 3.7 0 2.15 1.33 3.02 4.05 3.36v2.78c-1.05-.1-2.1-.42-2.9-.95l-.8 1.42c.9.63 2.15 1.05 3.7 1.15V24.5h1.56v-1.48c2.6-.28 3.92-1.75 3.92-3.82zm-6.35-3.95c-.95-.25-1.4-.62-1.4-1.32 0-.72.5-1.2 1.4-1.4v2.72zm3.05 6.05v-2.85c1.08.25 1.55.7 1.55 1.45 0 .78-.5 1.25-1.55 1.4z"/></g></svg>
