<svg xmlns="http://www.w3.org/2000/svg" viewBox="0 0 256 256" role="img" aria-labelledby="title desc">
  <title id="title">Apple sticker</title>
  <desc id="desc">A red apple sticker for the OpenReceive Hello Fruit demo.</desc>
  <rect width="256" height="256" rx="32" fill="#fff7ed"/>
  <path d="M139 54c18-25 40-26 50-24-3 20-19 37-43 39l-7-15Z" fill="#2f855a"/>
  <path d="M126 75c-39-28-91 5-86 61 5 60 45 88 83 67 8-4 14-4 22 0 38 21 78-7 83-67 5-56-47-89-86-61-6 4-10 4-16 0Z" fill="#e03131"/>
  <path d="M86 93c-17 11-25 31-22 55 3 25 14 44 31 55-31-6-51-31-55-67-4-43 26-73 62-70-6 11-10 20-16 27Z" fill="#ff6b6b"/>
  <path d="M134 75c-3-24-13-37-17-43" stroke="#5c3d2e" stroke-width="12" stroke-linecap="round"/>
</svg>
